# AST/ASF file generated using VICON BodyLanguage
# -----------------------------------------------
:version 1.10
:name VICON
:units
  mass 1.0
  length 0.45
  angle deg
:documentation
   .ast/.asf automatically generated from VICON data using
   VICON BodyBuilder and BodyLanguage model FoxedUp or BRILLIANT.MOD
:root
   order TX TY TZ RX RY RZ
   axis XYZ
   position 0 0 0  
   orientation 0 0 0 
:bonedata
  begin
     id 1 
     name lhipjoint
     direction 0.577973 -0.728611 0.367523 
     length 2.48544 
     axis 0 0 0  XYZ
  end
  begin
     id 2 
     name lfemur
     direction 0.34202 -0.939693 0  
     length 7.1921  
     axis 0 0 20  XYZ
    dof rx ry rz
    limits (-160.0 20.0)
           (-70.0 70.0)
           (-60.0 70.0)
  end
  begin
     id 3 
     name ltibia
     direction 0.34202 -0.939693 0   
     length 7.71059   
     axis 0 0 20   XYZ
    dof rx
    limits (-10.0 170.0)
  end
  begin
     id 4 
     name lfoot
     direction 0.089538 -0.246004 0.965124   
     length 2.19909   
     axis -90 7.62852e-016 20   XYZ
    dof rx rz
    limits (-45.0 90.0)
           (-70.0 20.0)
  end
  begin
     id 5 
     name ltoes
     direction 1.53544e-011 -4.21829e-011 1   
     length 1.10116   
     axis -90 7.62852e-016 20   XYZ
    dof rx
    limits (-90.0 20.0)
  end
  begin
     id 6 
     name rhipjoint
     direction -0.554414 -0.743062 0.374812   
     length 2.4371  
     axis 0 0 0  XYZ 
  end
  begin
     id 7 
     name rfemur
     direction -0.34202 -0.939693 0   
     length 7.47254   
     axis 0 0 -20   XYZ
    dof rx ry rz
    limits (-160.0 20.0)
           (-70.0 70.0)
           (-70.0 60.0)
  end
  begin
     id 8 
     name rtibia
     direction -0.34202 -0.939693 0   
     length 7.65855   
     axis 0 0 -20   XYZ
    dof rx
    limits (-10.0 170.0)
 end
 begin
     id 9 
     name rfoot
     direction -0.133779 -0.367555 0.92033   
     length 2.43006  
     axis -90 -7.62852e-016 -20   XYZ
    dof rx rz
    limits (-45.0 90.0)
           (-20.0 70.0)
  end
  begin
     id 10 
     name rtoes
     direction -1.53563e-011 -4.21889e-011 1   
     length 1.19625   
     axis -90 -7.62852e-016 -20   XYZ
    dof rx
    limits (-90.0 20.0)
  end
  begin
     id 11 
     name lowerback
     direction 0.0249066 0.998043 -0.0573585   
     length 2.08485   
     axis 0 0 0   XYZ
    dof rx ry rz
    limits (-20.0 45.0)
           (-30.0 30.0)
           (-30.0 30.0)
  end
  begin
     id 12 
     name upperback
     direction 0.0237884 0.999673 0.00943178   
     length 2.08515   
     axis 0 0 0   XYZ
    dof rx ry rz
    limits (-20.0 45.0)
           (-30.0 30.0)
           (-30.0 30.0)
  end
  begin
     id 13 
     name thorax
     direction 0.0106671 0.999301 0.0358174   
     length 2.09037   
     axis 0 0 0   XYZ
    dof rx ry rz
    limits (-20.0 45.0)
           (-30.0 30.0)
           (-30.0 30.0)
  end
  begin
     id 14 
     name lowerneck
     direction -0.0580016 0.987052 0.149546   
     length 1.84454   
     axis 0 0 0   XYZ
    dof rx ry rz
    limits (-20.0 45.0)
           (-30.0 30.0)
           (-30.0 30.0)
  end
  begin
     id 15 
     name upperneck
     direction 0.079456 0.981963 -0.171567   
     length 1.88141   
     axis 0 0 0   XYZ
    dof rx ry rz
    limits (-20.0 45.0)
           (-30.0 30.0)
           (-30.0 30.0)
  end
  begin
     id 16
     name head
     direction 0.0262167 0.9967 -0.0768276  
     length 1.89541  
     axis 0 0 0   XYZ
    dof rx ry rz
    limits (-20.0 45.0)
           (-30.0 30.0)
           (-30.0 30.0)
  end
  begin
     id 17 
     name lclavicle
     direction 0.946135 0.322134 -0.0325326  
     length 3.949  
     axis 0 0 0   XYZ
    dof ry rz
    limits (-20.0 10.0)
           (0.0 20.0)
  end
  begin
     id 18 
     name lhumerus
     direction 1 -4.48964e-011 1.94005e-028   
     length 5.10995   
     axis 180 -30 -90   XYZ
    dof rx ry rz
    limits (-60.0 90.0)
           (-90.0 90.0)
           (-90.0 90.0)
  end
  begin
     id 19
     name lradius
     direction 1 -4.48976e-011 2.87852e-027   
     length 3.21207   
     axis 180 -30 -90   XYZ
    dof rx
    limits (-10.0 170.0)
  end
  begin
     id 20
     name lwrist
     direction 1 -4.48963e-011 1.9975e-027   
     length 1.60604   
     axis 2.96054e-016 90 90   XYZ
    dof ry
    limits (-180.0 0.0)
 end
  begin
     id 21 
     name lhand
     direction 1 -4.48919e-011 4.00227e-027   
     length 0.63349   
     axis -2.5488e-015 90 90   XYZ
    dof rx rz
    limits (-90.0 90.0)
           (-45.0 45.0)
  end
  begin
     id 22 
     name lfingers
     direction 1 -4.49037e-011 7.9652e-027   
     length 0.510736   
     axis -5.0975e-015 90 90   XYZ
    dof rx
    limits (0.0 90.0)
  end
  begin
     id 23
     name lthumb
     direction 0.707107 -6.34922e-011 0.707107   
     length 0.733318   
     axis -90 45 -4.48553e-014   XYZ
    dof rx rz
    limits (-45.0 45.0)
           (-45.0 45.0)
  end
  begin
     id 24 
     name rclavicle
     direction -0.940085 0.328911 -0.0897654   
     length 3.93848  
     axis 0 0 0   XYZ 
    dof ry rz
    limits (-10.0 20.0)
           (-20.0 0.0)
  end
  begin
     id 25 
     name rhumerus
     direction -1 -4.48958e-011 3.02044e-027  
     length 5.25109   
     axis 180 30 90   XYZ
    dof rx ry rz
    limits (-90.0 60.0)
           (-90.0 90.0)
           (-90.0 90.0)
  end
  begin
     id 26 
     name rradius
     direction -1 -4.4897e-011 9.78352e-028   
     length 3.28364   
     axis 180 30 90   XYZ
    dof rx
    limits (-10.0 170.0)
  end
  begin
     id 27 
     name rwrist
     direction -1 -4.48943e-011 1.99918e-027   
     length 1.64182   
     axis 2.96054e-016 -90 -90   XYZ
    dof ry
    limits (-180.0 0.0)
  end
  begin
     id 28
     name rhand
     direction -1 -4.49024e-011 3.98478e-027   
     length 0.599745   
     axis -2.5488e-015 -90 -90   XYZ
    dof rx rz
    limits (-90.0 90.0)
           (-45.0 45.0)
  end
  begin
     id 29
     name rfingers
     direction -1 -4.48914e-011 8.00621e-027   
     length 0.48353   
     axis -5.0975e-015 -90 -90   XYZ
    dof rx
    limits (0.0 90.0)
  end
  begin
     id 30
     name rthumb
     direction -0.707107 -6.34992e-011 0.707107   
     length 0.694255   
     axis -90 -45 4.48553e-014   XYZ
    dof rx rz
    limits (-45.0 45.0)
           (-45.0 45.0)
  end
:hierarchy
  begin
    root lhipjoint rhipjoint lowerback
    lhipjoint lfemur
    lfemur ltibia
    ltibia lfoot
    lfoot ltoes
    rhipjoint rfemur
    rfemur rtibia
    rtibia rfoot
    rfoot rtoes
    lowerback upperback
    upperback thorax
    thorax lowerneck lclavicle rclavicle
    lowerneck upperneck
    upperneck head
    lclavicle lhumerus
    lhumerus lradius
    lradius lwrist
    lwrist lhand lthumb
    lhand lfingers
    rclavicle rhumerus
    rhumerus rradius
    rradius rwrist
    rwrist rhand rthumb
    rhand rfingers
  end

#!OML:ASF E:\CV Data\Top Level 1\Subject 1\Session 1\player.ASF
:FULLY-SPECIFIED
:DEGREES
289
root 8.15299 16.0827 -9.14473 126.475 -79.7195 -143.682
lowerback 10.3241 -0.278229 7.57821
upperback 1.73129 0.443332 2.11724
thorax -3.93495 0.0835396 -2.10551
lowerneck -14.4776 14.4709 -4.02885
upperneck 30.2903 17.9584 11.8668
head 10.4842 9.07868 7.02228
rclavicle -2.39287e-014 1.76918e-014
rhumerus -0.991771 39.9339 -81.0105
rradius 115.239
rwrist 19.3297
rhand -48.0009 50.161
rfingers 7.12502
rthumb -20.6692 21.2416
lclavicle -2.39287e-014 1.76918e-014
lhumerus 9.38949 -45.7404 82.9437
lradius 107.641
lwrist -23.9606
lhand -43.332 -7.71241
lfingers 7.12502
lthumb -16.178 21.6325
rfemur -9.56122 4.48761 32.8024
rtibia 52.7116
rfoot -24.0226 2.15767
rtoes 8.10661
lfemur -40.829 19.0765 -9.6139
ltibia 76.5296
lfoot -16.6027 -3.22275
ltoes -12.3739
290
root 8.12509 16.1104 -9.11193 125.767 -79.8073 -143.054
lowerback 10.5941 -0.301612 7.65376
upperback 1.8267 0.438318 2.21924
thorax -3.98478 0.0776229 -2.04081
lowerneck -14.5507 14.4705 -4.0297
upperneck 30.2198 17.9973 11.7581
head 10.4818 9.08699 6.991
rclavicle -2.03009e-014 -8.74653e-015
rhumerus -1.31303 39.0379 -81.707
rradius 114.106
rwrist 18.3189
rhand -47.8547 49.4689
rfingers 7.12502
rthumb -20.5288 20.5343
lclavicle -2.03009e-014 -8.74653e-015
lhumerus 9.70974 -45.0773 82.8977
lradius 106.12
lwrist -22.9691
lhand -42.9714 -7.59516
lfingers 7.12502
lthumb -15.8308 21.7776
rfemur -9.10993 4.44541 32.6884
rtibia 52.2277
rfoot -23.976 2.02958
rtoes 7.72186
lfemur -42.2542 18.8764 -10.0474
ltibia 74.4947
lfoot -16.6099 -3.26582
ltoes -12.9888
291
root 8.09888 16.1384 -9.0785 125.034 -79.8926 -142.389
lowerback 10.8557 -0.323781 7.73146
upperback 1.92294 0.434566 2.32303
thorax -4.02874 0.0723878 -1.97538
lowerneck -14.63 14.4701 -4.02625
upperneck 30.1487 18.0355 11.6481
head 10.4811 9.0953 6.95945
rclavicle 1.635e-014 1.74931e-014
rhumerus -1.65376 38.1077 -82.4436
rradius 112.872
rwrist 17.259
rhand -47.6922 48.7538
rfingers 7.12502
rthumb -20.3727 19.8024
lclavicle 1.635e-014 1.74931e-014
lhumerus 10.0179 -44.383 82.8714
lradius 104.468
lwrist -22.1194
lhand -42.6079 -7.40165
lfingers 7.12502
lthumb -15.4808 21.9985
rfemur -8.67819 4.42272 32.5804
rtibia 51.7406
rfoot -23.9121 1.90252
rtoes 7.48192
lfemur -43.6034 18.6816 -10.4703
ltibia 72.3849
lfoot -16.5815 -3.2704
ltoes -13.4726
292
root 8.07475 16.1656 -9.04506 124.282 -79.9805 -141.694
lowerback 11.1155 -0.343171 7.79148
upperback 2.01936 0.432694 2.43256
thorax -4.07128 0.0682403 -1.89416
lowerneck -14.7107 14.4679 -4.02414
upperneck 30.0685 18.0721 11.537
head 10.4775 9.10306 6.92689
rclavicle -2.5842e-015 -3.26007e-014
rhumerus -2.00828 37.1432 -83.2123
rradius 111.533
rwrist 16.1762
rhand -47.5231 47.9866
rfingers 7.12502
rthumb -20.2102 19.018
lclavicle -2.5842e-015 -3.26007e-014
lhumerus 10.3244 -43.6702 82.8586
lradius 102.687
lwrist -21.3729
lhand -42.1603 -7.16335
lfingers 7.12502
lthumb -15.0496 22.2697
rfemur -8.27009 4.4172 32.4786
rtibia 51.2593
rfoot -23.8354 1.76399
rtoes 7.29365
lfemur -44.8847 18.506 -10.8899
ltibia 70.2148
lfoot -16.5217 -3.22977
ltoes -13.8886
293
root 8.05263 16.1916 -9.01149 123.459 -80.0617 -140.914
lowerback 11.37 -0.360453 7.85217
upperback 2.11653 0.43336 2.54823
thorax -4.10962 0.065318 -1.80705
lowerneck -14.789 14.4627 -4.02605
upperneck 29.9706 18.1047 11.4287
head 10.4665 9.10984 6.89347
rclavicle 1.09332e-015 -3.26007e-014
rhumerus -2.37206 36.1304 -84.0167
rradius 110.087
rwrist 15.0977
rhand -47.3169 47.1429
rfingers 7.12502
rthumb -20.0119 18.1534
lclavicle 1.09332e-015 -3.26007e-014
lhumerus 10.6451 -42.9518 82.8339
lradius 100.791
lwrist -20.6682
lhand -41.773 -6.83582
lfingers 7.12502
lthumb -14.6765 22.6247
rfemur -7.88827 4.42179 32.3959
rtibia 50.7869
rfoot -23.7496 1.6134
rtoes 7.11085
lfemur -46.1036 18.338 -11.289
ltibia 67.9969
lfoot -16.417 -3.15411
ltoes -14.1495
294
root 8.03211 16.2161 -8.97786 122.621 -80.1474 -140.115
lowerback 11.62 -0.37462 7.90505
upperback 2.21778 0.436498 2.65961
thorax -4.14078 0.0639314 -1.72031
lowerneck -14.8652 14.4532 -4.02851
upperneck 29.855 18.1293 11.3268
head 10.4484 9.1147 6.85964
rclavicle 5.01931e-015 -4.13472e-014
rhumerus -2.74235 35.0589 -84.86
rradius 108.536
rwrist 14.0363
rhand -47.0605 46.196
rfingers 7.12502
rthumb -19.7654 17.181
lclavicle 5.01931e-015 -4.13472e-014
lhumerus 10.9867 -42.249 82.7449
lradius 98.8121
lwrist -19.9393
lhand -41.1479 -6.57671
lfingers 7.12502
lthumb -14.0742 22.9267
rfemur -7.52617 4.43405 32.3142
rtibia 50.3295
rfoot -23.6628 1.43751
rtoes 6.87791
lfemur -47.253 18.1846 -11.6895
ltibia 65.741
lfoot -16.2814 -3.01832
ltoes -14.4146
